<svg width="770" height="796" viewBox="0 0 770 796" fill="none" xmlns="http://www.w3.org/2000/svg">
<path d="M435.141 155.108L434.431 239.69V241.822L435.141 246.797L436.561 252.483L437.271 254.616L438.69 258.17L440.82 262.434L441.53 263.856L442.949 265.988L444.369 268.121L445.789 270.253L447.208 272.385L448.982 274.873L451.112 277.715L453.241 280.559L455.371 282.691L458.209 285.534L462.468 288.733C533.573 318.526 582.422 389.618 582.422 471.213C582.422 579.62 494.303 667.545 385.457 667.925V155.108H435.141Z" fill="white"/>
<path d="M336.126 155.108L336.836 239.69V241.822L336.126 246.797L335.417 249.64L334.707 252.483L333.997 254.616L332.577 258.17L330.448 262.434L329.738 263.856L328.318 265.988L326.899 268.121L325.479 270.253L324.06 272.385L322.285 274.873L320.156 277.715L318.026 280.559L315.897 282.691L313.059 285.534L308.8 288.733C237.695 318.526 188.846 389.618 188.846 471.213C188.846 579.62 276.965 667.545 385.812 667.925V155.108H336.126Z" fill="white"/>
<g filter="url(#filter0_i_6_6)">
<path fill-rule="evenodd" clip-rule="evenodd" d="M372.652 291.387H372C372 286.07 370.011 281.421 366.037 277.447C362.063 273.473 357.417 271.484 352.097 271.484V270.832C357.417 270.832 362.063 268.843 366.037 264.86C370.011 260.876 372 256.23 372 250.929H372.652C372.652 256.246 374.64 260.895 378.614 264.869C382.588 268.843 387.234 270.832 392.554 270.832V271.484C387.237 271.484 382.588 273.473 378.614 277.447C374.64 281.421 372.652 286.066 372.652 291.387Z" fill="#04B1F4"/>
</g>
<g filter="url(#filter1_i_6_6)">
<path fill-rule="evenodd" clip-rule="evenodd" d="M415.573 376.476H414.168C414.168 365.013 409.881 354.991 401.314 346.424C392.746 337.857 382.731 333.57 371.261 333.57V332.164C382.731 332.164 392.746 327.877 401.314 319.289C409.881 310.7 414.168 300.685 414.168 289.258H415.573C415.573 300.721 419.86 310.743 428.427 319.31C436.995 327.877 447.01 332.164 458.48 332.164V333.57C447.017 333.57 436.995 337.857 428.427 346.424C419.86 354.991 415.573 365.006 415.573 376.476Z" fill="#02B0F7"/>
</g>
<path d="M391.845 416.309C381.165 417.18 342.985 409.141 332.578 411.696C316.491 415.644 333.997 443.281 333.997 443.281L369.842 484.804L525.285 521.003L599.458 500.064L605.846 452.508C605.846 452.508 592.838 422.509 577.454 409.566C567.575 401.255 560.218 399.088 548.708 393.241C541.467 389.563 538.807 389.314 530.963 387.208C522.112 384.832 515.639 382.862 506.476 382.949C498.557 383.025 494.066 383.113 486.247 384.369C476.885 385.873 471.747 387.552 462.824 390.757C453.659 394.048 449.08 397.257 440.111 401.049C430.652 405.047 425.43 407.585 415.623 410.631C406.506 413.463 401.36 415.534 391.845 416.309Z" fill="#8AD8FC"/>
<path d="M264.438 382.594C231.788 383.659 221.141 393.951 199.138 404.598L167.197 437.603V480.545V537.683L191.33 587.368L236.047 629.245L293.539 668.638L369.131 686.028L444.014 682.479L512.863 653.378L574.26 587.368L598.747 531.294L599.812 449.669C599.812 449.669 594.44 460.302 587.746 464.575C572.817 474.102 563.212 480.958 547.288 488.707C536.127 494.139 529.077 495.985 516.767 497.58C506.459 498.915 500.484 498.699 490.15 497.58C476.348 496.085 468.731 493.564 455.725 488.707C432.479 480.026 421.829 469.827 401.427 455.702C373.894 436.641 360.259 416.664 335.062 401.404C309.864 386.143 292.965 381.664 264.438 382.594Z" fill="#0196F0"/>
<path d="M264.083 490.127C234.985 498.485 218.786 507.475 196.299 527.746L179.974 558.976L196.299 596.95L233.208 632.084L300.637 674.317L375.165 693.126L470.631 679.995L554.386 621.083L608.684 540.522V476.286C608.684 476.286 615.427 451.444 604.071 451.444C592.714 451.444 567.364 475.134 554.386 484.804C537.719 497.222 527.329 503.342 507.895 510.711C478.828 521.733 459.615 528.043 429.109 522.068C394.684 515.325 378.359 507.872 345.354 496.87C316.431 487.229 297.443 480.545 264.083 490.127Z" fill="#004FDC"/>
<g filter="url(#filter2_i_6_6)">
<path d="M258.051 502.903C232.6 504.199 216.601 511.886 196.654 527.746L178.2 561.816L200.558 603.693L251.663 649.829L312.704 677.511L407.816 689.222L494.055 663.67L561.484 613.63V565.365C549.842 571.186 543.723 575.348 531.673 580.27C520.597 584.795 514.299 587.478 502.572 589.852C488.557 592.69 480.279 593.027 466.018 591.982C451.325 590.905 443.06 588.91 429.109 584.174C411.206 578.096 402.711 570.968 386.167 561.816C356.715 545.523 335.772 526.874 319.447 519.228C299.218 509.754 283.501 501.608 258.051 502.903Z" fill="#012B81"/>
</g>
<g filter="url(#filter3_d_6_6)">
<path d="M336.837 239.689V241.821L336.127 246.797L335.418 249.64L334.708 252.482L333.998 254.615L332.578 258.169L330.449 262.434L329.739 263.855L328.319 265.987L326.9 268.12L325.48 270.252L324.061 272.385L322.286 274.872L320.157 277.715L318.027 280.559L315.898 282.69L313.06 285.533L308.801 288.732C237.696 318.526 188.847 389.617 188.847 471.212C188.847 579.502 276.774 667.351 385.457 667.922V667.925C385.516 667.925 385.576 667.923 385.635 667.923C385.694 667.923 385.754 667.925 385.812 667.925V667.922C494.495 667.351 582.423 579.501 582.423 471.212C582.423 389.617 533.574 318.526 462.469 288.732L458.21 285.533L455.371 282.69L453.241 280.559L451.112 277.715L448.982 274.872L447.208 272.385L445.789 270.252L444.369 268.12L442.949 265.987L441.53 263.855L440.82 262.434L438.69 258.169L437.271 254.615L436.562 252.482L435.142 246.797L434.432 241.821V239.689L435.136 155.817H336.133L336.837 239.689ZM479.858 249.158C567.431 285.708 628.913 371.573 628.913 471.672C628.913 604.953 519.914 713 385.457 713C251 713 142 604.953 142 471.672C142 371.573 203.482 285.708 291.055 249.158V155.817H291.056V155.646C272.337 153.861 257.695 138.096 257.695 118.909C257.695 99.7221 272.336 83.9557 291.056 82.1699V82H479.858V82.1699C498.578 83.9558 513.219 99.7221 513.219 118.909C513.219 138.096 498.577 153.861 479.858 155.646V249.158Z" fill="url(#paint0_linear_6_6)"/>
</g>
<defs>
<filter id="filter0_i_6_6" x="352.097" y="250.929" width="40.458" height="44.4578" filterUnits="userSpaceOnUse" color-interpolation-filters="sRGB">
<feFlood flood-opacity="0" result="BackgroundImageFix"/>
<feBlend mode="normal" in="SourceGraphic" in2="BackgroundImageFix" result="shape"/>
<feColorMatrix in="SourceAlpha" type="matrix" values="0 0 0 0 0 0 0 0 0 0 0 0 0 0 0 0 0 0 127 0" result="hardAlpha"/>
<feOffset dy="4"/>
<feGaussianBlur stdDeviation="2"/>
<feComposite in2="hardAlpha" operator="arithmetic" k2="-1" k3="1"/>
<feColorMatrix type="matrix" values="0 0 0 0 0 0 0 0 0 0 0 0 0 0 0 0 0 0 0.25 0"/>
<feBlend mode="normal" in2="shape" result="effect1_innerShadow_6_6"/>
</filter>
<filter id="filter1_i_6_6" x="371.261" y="289.258" width="87.2188" height="91.2185" filterUnits="userSpaceOnUse" color-interpolation-filters="sRGB">
<feFlood flood-opacity="0" result="BackgroundImageFix"/>
<feBlend mode="normal" in="SourceGraphic" in2="BackgroundImageFix" result="shape"/>
<feColorMatrix in="SourceAlpha" type="matrix" values="0 0 0 0 0 0 0 0 0 0 0 0 0 0 0 0 0 0 127 0" result="hardAlpha"/>
<feOffset dy="4"/>
<feGaussianBlur stdDeviation="2"/>
<feComposite in2="hardAlpha" operator="arithmetic" k2="-1" k3="1"/>
<feColorMatrix type="matrix" values="0 0 0 0 0 0 0 0 0 0 0 0 0 0 0 0 0 0 0.25 0"/>
<feBlend mode="normal" in2="shape" result="effect1_innerShadow_6_6"/>
</filter>
<filter id="filter2_i_6_6" x="178.2" y="502.767" width="383.285" height="190.455" filterUnits="userSpaceOnUse" color-interpolation-filters="sRGB">
<feFlood flood-opacity="0" result="BackgroundImageFix"/>
<feBlend mode="normal" in="SourceGraphic" in2="BackgroundImageFix" result="shape"/>
<feColorMatrix in="SourceAlpha" type="matrix" values="0 0 0 0 0 0 0 0 0 0 0 0 0 0 0 0 0 0 127 0" result="hardAlpha"/>
<feOffset dy="4"/>
<feGaussianBlur stdDeviation="2"/>
<feComposite in2="hardAlpha" operator="arithmetic" k2="-1" k3="1"/>
<feColorMatrix type="matrix" values="0 0 0 0 0 0 0 0 0 0 0 0 0 0 0 0 0 0 0.25 0"/>
<feBlend mode="normal" in2="shape" result="effect1_innerShadow_6_6"/>
</filter>
<filter id="filter3_d_6_6" x="138" y="82" width="494.913" height="639" filterUnits="userSpaceOnUse" color-interpolation-filters="sRGB">
<feFlood flood-opacity="0" result="BackgroundImageFix"/>
<feColorMatrix in="SourceAlpha" type="matrix" values="0 0 0 0 0 0 0 0 0 0 0 0 0 0 0 0 0 0 127 0" result="hardAlpha"/>
<feOffset dy="4"/>
<feGaussianBlur stdDeviation="2"/>
<feComposite in2="hardAlpha" operator="out"/>
<feColorMatrix type="matrix" values="0 0 0 0 0 0 0 0 0 0 0 0 0 0 0 0 0 0 0.25 0"/>
<feBlend mode="normal" in2="BackgroundImageFix" result="effect1_dropShadow_6_6"/>
<feBlend mode="normal" in="SourceGraphic" in2="effect1_dropShadow_6_6" result="shape"/>
</filter>
<linearGradient id="paint0_linear_6_6" x1="565.742" y1="111.101" x2="142" y2="682.834" gradientUnits="userSpaceOnUse">
<stop stop-color="#0047DC"/>
<stop offset="0.725962" stop-color="#002C94"/>
</linearGradient>
</defs>
</svg>
