<svg width="770" height="796" viewBox="0 0 770 796" fill="none" xmlns="http://www.w3.org/2000/svg">
<g filter="url(#filter0_i_54_79)">
<path fill-rule="evenodd" clip-rule="evenodd" d="M372.652 291.387H372C372 286.07 370.011 281.421 366.037 277.447C362.063 273.473 357.417 271.484 352.097 271.484V270.832C357.417 270.832 362.063 268.844 366.037 264.86C370.011 260.876 372 256.23 372 250.929H372.652C372.652 256.247 374.64 260.895 378.614 264.87C382.588 268.844 387.234 270.832 392.554 270.832V271.484C387.237 271.484 382.588 273.473 378.614 277.447C374.64 281.421 372.652 286.066 372.652 291.387Z" fill="#FFB300"/>
</g>
<g filter="url(#filter1_i_54_79)">
<path fill-rule="evenodd" clip-rule="evenodd" d="M415.573 376.476H414.167C414.167 365.013 409.88 354.991 401.313 346.424C392.746 337.857 382.731 333.57 371.261 333.57V332.164C382.731 332.164 392.746 327.877 401.313 319.289C409.88 310.7 414.167 300.685 414.167 289.258H415.573C415.573 300.721 419.86 310.743 428.427 319.31C436.994 327.877 447.009 332.164 458.479 332.164V333.57C447.016 333.57 436.994 337.857 428.427 346.424C419.86 354.991 415.573 365.006 415.573 376.476Z" fill="#FFB300"/>
</g>
<path d="M391.845 416.311C381.165 417.182 342.985 409.143 332.578 411.698C316.491 415.647 333.997 443.283 333.997 443.283L369.842 484.806L525.285 521.005L599.458 500.066L605.846 452.511C605.846 452.511 592.838 422.511 577.454 409.569C567.575 401.257 560.218 399.09 548.708 393.243C541.467 389.565 538.807 389.316 530.963 387.21C522.112 384.834 515.639 382.864 506.476 382.952C498.557 383.027 494.066 383.115 486.247 384.371C476.885 385.875 471.747 387.555 462.824 390.759C453.659 394.051 449.08 397.26 440.111 401.051C430.652 405.049 425.43 407.587 415.623 410.633C406.506 413.465 401.36 415.536 391.845 416.311Z" fill="#FFF3B7"/>
<path d="M264.439 382.594C231.789 383.658 221.142 393.95 199.139 404.597L167.198 437.602V480.544V537.682L191.331 587.367L236.047 629.244L293.54 668.638L369.132 686.027L444.015 682.478L512.864 653.377L574.261 587.367L598.748 531.294L599.813 449.669C599.813 449.669 594.441 460.301 587.747 464.574C572.818 474.102 563.213 480.957 547.289 488.707C536.128 494.138 529.078 495.984 516.768 497.579C506.459 498.915 500.485 498.699 490.151 497.579C476.349 496.084 468.732 493.564 455.726 488.707C432.479 480.025 421.83 469.827 401.428 455.702C373.895 436.641 360.26 416.664 335.063 401.403C309.865 386.143 292.965 381.664 264.439 382.594Z" fill="#FFCA33"/>
<path d="M264.083 490.127C234.985 498.485 218.786 507.475 196.299 527.746L179.974 558.976L196.299 596.95L233.208 632.084L300.637 674.316L375.165 693.126L470.631 679.995L554.386 621.083L608.685 540.522V476.286C608.685 476.286 615.427 451.444 604.071 451.444C592.714 451.444 567.364 475.133 554.386 484.804C537.719 497.222 527.329 503.342 507.895 510.711C478.828 521.732 459.615 528.043 429.109 522.067C394.684 515.324 378.359 507.872 345.354 496.87C316.431 487.229 297.443 480.545 264.083 490.127Z" fill="#FFB400"/>
<g filter="url(#filter2_i_54_79)">
<path d="M258.05 502.903C232.599 504.198 216.6 511.885 196.654 527.745L178.199 561.815L200.557 603.692L251.662 649.828L312.704 677.51L407.815 689.222L494.054 663.669L561.484 613.629V565.364C549.842 571.185 543.722 575.347 531.673 580.269C520.596 584.794 514.299 587.477 502.572 589.852C488.556 592.689 480.279 593.026 466.018 591.981C451.324 590.904 443.059 588.91 429.109 584.173C411.205 578.095 402.711 570.967 386.167 561.815C356.715 545.522 335.772 526.874 319.447 519.228C299.218 509.753 283.501 501.607 258.05 502.903Z" fill="#B83D01"/>
</g>
<g filter="url(#filter3_d_54_79)">
<path d="M336.837 239.689V241.821L336.127 246.797L335.418 249.64L334.708 252.482L333.998 254.615L332.578 258.169L330.449 262.434L329.739 263.855L328.319 265.987L326.9 268.12L325.48 270.252L324.061 272.385L322.286 274.872L320.157 277.715L318.027 280.559L315.898 282.69L313.06 285.533L308.801 288.732C237.696 318.526 188.847 389.617 188.847 471.212C188.847 579.502 276.774 667.351 385.457 667.922V667.925C385.516 667.925 385.576 667.923 385.635 667.923C385.694 667.923 385.754 667.925 385.812 667.925V667.922C494.495 667.351 582.423 579.501 582.423 471.212C582.423 389.617 533.574 318.526 462.469 288.732L458.21 285.533L455.371 282.69L453.241 280.559L451.112 277.715L448.982 274.872L447.208 272.385L445.789 270.252L444.369 268.12L442.949 265.987L441.53 263.855L440.82 262.434L438.69 258.169L437.271 254.615L436.562 252.482L435.142 246.797L434.432 241.821V239.689L435.136 155.817H336.133L336.837 239.689ZM479.858 249.158C567.431 285.708 628.913 371.573 628.913 471.672C628.913 604.953 519.914 713 385.457 713C251 713 142 604.953 142 471.672C142 371.573 203.482 285.708 291.055 249.158V155.817H291.056V155.646C272.337 153.861 257.695 138.096 257.695 118.909C257.695 99.7221 272.336 83.9557 291.056 82.1699V82H479.858V82.1699C498.578 83.9558 513.219 99.7221 513.219 118.909C513.219 138.096 498.577 153.861 479.858 155.646V249.158Z" fill="url(#paint0_linear_54_79)"/>
</g>
<defs>
<filter id="filter0_i_54_79" x="352.097" y="250.929" width="40.458" height="44.4578" filterUnits="userSpaceOnUse" color-interpolation-filters="sRGB">
<feFlood flood-opacity="0" result="BackgroundImageFix"/>
<feBlend mode="normal" in="SourceGraphic" in2="BackgroundImageFix" result="shape"/>
<feColorMatrix in="SourceAlpha" type="matrix" values="0 0 0 0 0 0 0 0 0 0 0 0 0 0 0 0 0 0 127 0" result="hardAlpha"/>
<feOffset dy="4"/>
<feGaussianBlur stdDeviation="2"/>
<feComposite in2="hardAlpha" operator="arithmetic" k2="-1" k3="1"/>
<feColorMatrix type="matrix" values="0 0 0 0 0 0 0 0 0 0 0 0 0 0 0 0 0 0 0.25 0"/>
<feBlend mode="normal" in2="shape" result="effect1_innerShadow_54_79"/>
</filter>
<filter id="filter1_i_54_79" x="371.261" y="289.258" width="87.2188" height="91.2185" filterUnits="userSpaceOnUse" color-interpolation-filters="sRGB">
<feFlood flood-opacity="0" result="BackgroundImageFix"/>
<feBlend mode="normal" in="SourceGraphic" in2="BackgroundImageFix" result="shape"/>
<feColorMatrix in="SourceAlpha" type="matrix" values="0 0 0 0 0 0 0 0 0 0 0 0 0 0 0 0 0 0 127 0" result="hardAlpha"/>
<feOffset dy="4"/>
<feGaussianBlur stdDeviation="2"/>
<feComposite in2="hardAlpha" operator="arithmetic" k2="-1" k3="1"/>
<feColorMatrix type="matrix" values="0 0 0 0 0 0 0 0 0 0 0 0 0 0 0 0 0 0 0.25 0"/>
<feBlend mode="normal" in2="shape" result="effect1_innerShadow_54_79"/>
</filter>
<filter id="filter2_i_54_79" x="178.199" y="502.767" width="383.284" height="187.455" filterUnits="userSpaceOnUse" color-interpolation-filters="sRGB">
<feFlood flood-opacity="0" result="BackgroundImageFix"/>
<feBlend mode="normal" in="SourceGraphic" in2="BackgroundImageFix" result="shape"/>
<feColorMatrix in="SourceAlpha" type="matrix" values="0 0 0 0 0 0 0 0 0 0 0 0 0 0 0 0 0 0 127 0" result="hardAlpha"/>
<feOffset dy="1"/>
<feGaussianBlur stdDeviation="2"/>
<feComposite in2="hardAlpha" operator="arithmetic" k2="-1" k3="1"/>
<feColorMatrix type="matrix" values="0 0 0 0 0 0 0 0 0 0 0 0 0 0 0 0 0 0 0.25 0"/>
<feBlend mode="normal" in2="shape" result="effect1_innerShadow_54_79"/>
</filter>
<filter id="filter3_d_54_79" x="138" y="82" width="494.913" height="639" filterUnits="userSpaceOnUse" color-interpolation-filters="sRGB">
<feFlood flood-opacity="0" result="BackgroundImageFix"/>
<feColorMatrix in="SourceAlpha" type="matrix" values="0 0 0 0 0 0 0 0 0 0 0 0 0 0 0 0 0 0 127 0" result="hardAlpha"/>
<feOffset dy="4"/>
<feGaussianBlur stdDeviation="2"/>
<feComposite in2="hardAlpha" operator="out"/>
<feColorMatrix type="matrix" values="0 0 0 0 0 0 0 0 0 0 0 0 0 0 0 0 0 0 0.25 0"/>
<feBlend mode="normal" in2="BackgroundImageFix" result="effect1_dropShadow_54_79"/>
<feBlend mode="normal" in="SourceGraphic" in2="effect1_dropShadow_54_79" result="shape"/>
</filter>
<linearGradient id="paint0_linear_54_79" x1="565.742" y1="111.101" x2="142" y2="682.834" gradientUnits="userSpaceOnUse">
<stop offset="0.245192" stop-color="#E98403"/>
<stop offset="0.725962" stop-color="#C14100"/>
</linearGradient>
</defs>
</svg>
