<svg width="694" height="897" viewBox="0 0 694 897" fill="none" xmlns="http://www.w3.org/2000/svg">
<g filter="url(#filter0_i_6_2)">
<path fill-rule="evenodd" clip-rule="evenodd" d="M328.959 295H328.041C328.041 287.509 325.239 280.959 319.64 275.36C314.041 269.761 307.496 266.959 300 266.959V266.041C307.496 266.041 314.041 263.239 319.64 257.626C325.239 252.013 328.041 245.468 328.041 238H328.959C328.959 245.491 331.761 252.041 337.36 257.64C342.959 263.239 349.504 266.041 357 266.041V266.959C349.509 266.959 342.959 269.761 337.36 275.36C331.761 280.959 328.959 287.504 328.959 295Z" fill="#823184"/>
</g>
<g filter="url(#filter1_i_6_2)">
<path fill-rule="evenodd" clip-rule="evenodd" d="M389.43 414.88H387.45C387.45 398.73 381.41 384.61 369.34 372.54C357.27 360.47 343.16 354.43 327 354.43V352.45C343.16 352.45 357.27 346.41 369.34 334.31C381.41 322.21 387.45 308.1 387.45 292H389.43C389.43 308.15 395.47 322.27 407.54 334.34C419.61 346.41 433.72 352.45 449.88 352.45V354.43C433.73 354.43 419.61 360.47 407.54 372.54C395.47 384.61 389.43 398.72 389.43 414.88Z" fill="#823286"/>
</g>
<g filter="url(#filter2_i_6_2)">
<path d="M356 471C340.952 472.227 287.162 460.901 272.5 464.5C249.835 470.063 274.5 509 274.5 509L325 567.5L544 618.5L648.5 589L657.5 522C657.5 522 639.174 479.734 617.5 461.5C603.581 449.791 593.216 446.737 577 438.5C566.798 433.318 563.051 432.966 552 430C539.53 426.653 530.41 423.877 517.5 424C506.343 424.106 500.016 424.23 489 426C475.811 428.119 468.572 430.485 456 435C443.087 439.637 436.637 444.158 424 449.5C410.673 455.133 403.316 458.708 389.5 463C376.655 466.99 369.406 469.907 356 471Z" fill="#9D41C5"/>
</g>
<g filter="url(#filter3_i_6_2)">
<path d="M176.5 423.5C130.5 425 115.5 439.5 84.5 454.5L39.5 501V561.5V642L73.5 712L136.5 771L217.5 826.5L324 851L429.5 846L526.5 805L613 712L647.5 633L649 518C649 518 641.432 532.98 632 539C610.968 552.424 597.435 562.082 575 573C559.276 580.653 549.343 583.253 532 585.5C517.477 587.382 509.059 587.077 494.5 585.5C475.054 583.394 464.323 579.843 446 573C413.248 560.769 398.245 546.4 369.5 526.5C330.711 499.645 311.5 471.5 276 450C240.5 428.5 216.69 422.19 176.5 423.5Z" fill="#492474"/>
</g>
<g filter="url(#filter4_i_6_2)">
<path d="M176 575C135.004 586.775 112.182 599.441 80.5 628L57.5 672L80.5 725.5L132.5 775L227.5 834.5L332.5 861L467 842.5L585 759.5L661.5 646V555.5C661.5 555.5 671 520.5 655 520.5C639 520.5 603.285 553.876 585 567.5C561.519 584.996 546.88 593.618 519.5 604C478.549 619.528 451.479 628.419 408.5 620C360 610.5 337 600 290.5 584.5C249.751 570.917 223 561.5 176 575Z" fill="#814CDD"/>
</g>
<g filter="url(#filter5_i_6_2)">
<path d="M167.5 593C131.643 594.825 109.102 605.655 81 628L55 676L86.5 735L158.5 800L244.5 839L378.5 855.5L500 819.5L595 749V681C578.598 689.201 569.976 695.065 553 702C537.395 708.375 528.522 712.155 512 715.5C492.254 719.498 480.592 719.972 460.5 718.5C439.799 716.983 428.155 714.173 408.5 707.5C383.277 698.936 371.308 688.895 348 676C306.506 653.045 277 626.772 254 616C225.5 602.652 203.357 591.175 167.5 593Z" fill="#D84CE4"/>
</g>
<g filter="url(#filter6_d_6_2)">
<path d="M278.5 222.165V225.169L277.5 232.179L276.5 236.185L275.5 240.189L274.5 243.194L272.5 248.201L269.5 254.209L268.5 256.212L266.5 259.216L264.5 262.221L260.5 268.229L258 271.733L252 279.745L249 282.749L245 286.754L239 291.261C138.822 333.236 70 433.395 70 548.353C70.0002 700.919 193.879 824.689 347 825.492V825.496C347.083 825.496 347.167 825.495 347.25 825.494C347.333 825.495 347.417 825.496 347.5 825.496V825.492C500.621 824.689 624.5 700.919 624.5 548.353C624.5 433.395 555.678 333.236 455.5 291.261L449.5 286.754L445.5 282.749L442.5 279.745L436.5 271.733L434 268.229L430 262.221L428 259.216L426 256.212L425 254.209L422 248.201L420 243.194L419 240.189L418 236.185L417 232.179L416 225.169V222.165L416.991 104H277.509L278.5 222.165ZM480 235.506C603.38 287 690 407.973 690 549C690 736.777 536.434 889 347 889C157.566 889 4 736.777 4 549C4 407.973 90.6203 287 214 235.506V103.761C187.627 101.245 167 79.0321 167 52C167 24.9679 187.627 2.75436 214 0.238281V0H480V0.238281C506.373 2.75436 527 24.9679 527 52C527 79.0321 506.373 101.245 480 103.761V235.506Z" fill="url(#paint0_linear_6_2)"/>
</g>
<defs>
<filter id="filter0_i_6_2" x="300" y="238" width="57" height="61" filterUnits="userSpaceOnUse" color-interpolation-filters="sRGB">
<feFlood flood-opacity="0" result="BackgroundImageFix"/>
<feBlend mode="normal" in="SourceGraphic" in2="BackgroundImageFix" result="shape"/>
<feColorMatrix in="SourceAlpha" type="matrix" values="0 0 0 0 0 0 0 0 0 0 0 0 0 0 0 0 0 0 127 0" result="hardAlpha"/>
<feOffset dy="4"/>
<feGaussianBlur stdDeviation="2"/>
<feComposite in2="hardAlpha" operator="arithmetic" k2="-1" k3="1"/>
<feColorMatrix type="matrix" values="0 0 0 0 0 0 0 0 0 0 0 0 0 0 0 0 0 0 0.25 0"/>
<feBlend mode="normal" in2="shape" result="effect1_innerShadow_6_2"/>
</filter>
<filter id="filter1_i_6_2" x="327" y="292" width="122.88" height="126.88" filterUnits="userSpaceOnUse" color-interpolation-filters="sRGB">
<feFlood flood-opacity="0" result="BackgroundImageFix"/>
<feBlend mode="normal" in="SourceGraphic" in2="BackgroundImageFix" result="shape"/>
<feColorMatrix in="SourceAlpha" type="matrix" values="0 0 0 0 0 0 0 0 0 0 0 0 0 0 0 0 0 0 127 0" result="hardAlpha"/>
<feOffset dy="4"/>
<feGaussianBlur stdDeviation="2"/>
<feComposite in2="hardAlpha" operator="arithmetic" k2="-1" k3="1"/>
<feColorMatrix type="matrix" values="0 0 0 0 0 0 0 0 0 0 0 0 0 0 0 0 0 0 0.25 0"/>
<feBlend mode="normal" in2="shape" result="effect1_innerShadow_6_2"/>
</filter>
<filter id="filter2_i_6_2" x="262.92" y="423.996" width="394.58" height="198.504" filterUnits="userSpaceOnUse" color-interpolation-filters="sRGB">
<feFlood flood-opacity="0" result="BackgroundImageFix"/>
<feBlend mode="normal" in="SourceGraphic" in2="BackgroundImageFix" result="shape"/>
<feColorMatrix in="SourceAlpha" type="matrix" values="0 0 0 0 0 0 0 0 0 0 0 0 0 0 0 0 0 0 127 0" result="hardAlpha"/>
<feOffset dy="4"/>
<feGaussianBlur stdDeviation="2"/>
<feComposite in2="hardAlpha" operator="arithmetic" k2="-1" k3="1"/>
<feColorMatrix type="matrix" values="0 0 0 0 0 0 0 0 0 0 0 0 0 0 0 0 0 0 0.25 0"/>
<feBlend mode="normal" in2="shape" result="effect1_innerShadow_6_2"/>
</filter>
<filter id="filter3_i_6_2" x="39.5" y="423.336" width="609.5" height="431.664" filterUnits="userSpaceOnUse" color-interpolation-filters="sRGB">
<feFlood flood-opacity="0" result="BackgroundImageFix"/>
<feBlend mode="normal" in="SourceGraphic" in2="BackgroundImageFix" result="shape"/>
<feColorMatrix in="SourceAlpha" type="matrix" values="0 0 0 0 0 0 0 0 0 0 0 0 0 0 0 0 0 0 127 0" result="hardAlpha"/>
<feOffset dy="4"/>
<feGaussianBlur stdDeviation="2"/>
<feComposite in2="hardAlpha" operator="arithmetic" k2="-1" k3="1"/>
<feColorMatrix type="matrix" values="0 0 0 0 0 0 0 0 0 0 0 0 0 0 0 0 0 0 0.25 0"/>
<feBlend mode="normal" in2="shape" result="effect1_innerShadow_6_2"/>
</filter>
<filter id="filter4_i_6_2" x="57.5" y="520.5" width="606.8" height="344.5" filterUnits="userSpaceOnUse" color-interpolation-filters="sRGB">
<feFlood flood-opacity="0" result="BackgroundImageFix"/>
<feBlend mode="normal" in="SourceGraphic" in2="BackgroundImageFix" result="shape"/>
<feColorMatrix in="SourceAlpha" type="matrix" values="0 0 0 0 0 0 0 0 0 0 0 0 0 0 0 0 0 0 127 0" result="hardAlpha"/>
<feOffset dy="4"/>
<feGaussianBlur stdDeviation="2"/>
<feComposite in2="hardAlpha" operator="arithmetic" k2="-1" k3="1"/>
<feColorMatrix type="matrix" values="0 0 0 0 0 0 0 0 0 0 0 0 0 0 0 0 0 0 0.25 0"/>
<feBlend mode="normal" in2="shape" result="effect1_innerShadow_6_2"/>
</filter>
<filter id="filter5_i_6_2" x="55" y="592.808" width="540" height="266.692" filterUnits="userSpaceOnUse" color-interpolation-filters="sRGB">
<feFlood flood-opacity="0" result="BackgroundImageFix"/>
<feBlend mode="normal" in="SourceGraphic" in2="BackgroundImageFix" result="shape"/>
<feColorMatrix in="SourceAlpha" type="matrix" values="0 0 0 0 0 0 0 0 0 0 0 0 0 0 0 0 0 0 127 0" result="hardAlpha"/>
<feOffset dy="4"/>
<feGaussianBlur stdDeviation="2"/>
<feComposite in2="hardAlpha" operator="arithmetic" k2="-1" k3="1"/>
<feColorMatrix type="matrix" values="0 0 0 0 0 0 0 0 0 0 0 0 0 0 0 0 0 0 0.25 0"/>
<feBlend mode="normal" in2="shape" result="effect1_innerShadow_6_2"/>
</filter>
<filter id="filter6_d_6_2" x="0" y="0" width="694" height="897" filterUnits="userSpaceOnUse" color-interpolation-filters="sRGB">
<feFlood flood-opacity="0" result="BackgroundImageFix"/>
<feColorMatrix in="SourceAlpha" type="matrix" values="0 0 0 0 0 0 0 0 0 0 0 0 0 0 0 0 0 0 127 0" result="hardAlpha"/>
<feOffset dy="4"/>
<feGaussianBlur stdDeviation="2"/>
<feComposite in2="hardAlpha" operator="out"/>
<feColorMatrix type="matrix" values="0 0 0 0 0 0 0 0 0 0 0 0 0 0 0 0 0 0 0.25 0"/>
<feBlend mode="normal" in2="BackgroundImageFix" result="effect1_dropShadow_6_2"/>
<feBlend mode="normal" in="SourceGraphic" in2="effect1_dropShadow_6_2" result="shape"/>
</filter>
<linearGradient id="paint0_linear_6_2" x1="601" y1="41" x2="3.99998" y2="846.5" gradientUnits="userSpaceOnUse">
<stop stop-color="#A8308E"/>
<stop offset="1" stop-color="#4C2573"/>
</linearGradient>
</defs>
</svg>
